<svg xmlns="http://www.w3.org/2000/svg" width="1400" height="620" viewBox="0 0 1400 620">
  <defs>
    <marker id="a" markerWidth="10" markerHeight="10" refX="9" refY="5" orient="auto">
      <path d="M0,0 L10,5 L0,10 z" fill="#3A556A"/>
    </marker>
  </defs>
  <rect width="1400" height="620" fill="#F8FBFC"/>
  <text x="700" y="55" text-anchor="middle" font-family="Arial" font-size="34" font-weight="700" fill="#183B4E">Wet Lab–Dry Lab feedback loop</text>

  <rect x="80" y="220" width="250" height="150" rx="24" fill="#EAF5FF" stroke="#2D5E73" stroke-width="3"/>
  <text x="205" y="280" text-anchor="middle" font-family="Arial" font-size="24" font-weight="700" fill="#183B4E">RNA-seq data</text>
  <text x="205" y="320" text-anchor="middle" font-family="Arial" font-size="18" fill="#516B78">treated and control</text>

  <rect x="420" y="100" width="250" height="150" rx="24" fill="#F4ECFF" stroke="#2D5E73" stroke-width="3"/>
  <text x="545" y="160" text-anchor="middle" font-family="Arial" font-size="24" font-weight="700" fill="#183B4E">Model 1</text>
  <text x="545" y="200" text-anchor="middle" font-family="Arial" font-size="18" fill="#516B78">evidence matrix</text>

  <rect x="760" y="100" width="250" height="150" rx="24" fill="#EAF8EE" stroke="#2D5E73" stroke-width="3"/>
  <text x="885" y="160" text-anchor="middle" font-family="Arial" font-size="24" font-weight="700" fill="#183B4E">Candidate list</text>
  <text x="885" y="200" text-anchor="middle" font-family="Arial" font-size="18" fill="#516B78">ranked sites</text>

  <rect x="1070" y="220" width="250" height="150" rx="24" fill="#FFF7E5" stroke="#2D5E73" stroke-width="3"/>
  <text x="1195" y="280" text-anchor="middle" font-family="Arial" font-size="24" font-weight="700" fill="#183B4E">Wet-lab test</text>
  <text x="1195" y="320" text-anchor="middle" font-family="Arial" font-size="18" fill="#516B78">selected sites</text>

  <rect x="575" y="390" width="250" height="150" rx="24" fill="#FFEDEF" stroke="#2D5E73" stroke-width="3"/>
  <text x="700" y="450" text-anchor="middle" font-family="Arial" font-size="24" font-weight="700" fill="#183B4E">Improved labels</text>
  <text x="700" y="490" text-anchor="middle" font-family="Arial" font-size="18" fill="#516B78">future models</text>

  <path d="M330 250 C365 205,385 185,415 175" fill="none" stroke="#3A556A" stroke-width="5" marker-end="url(#a)"/>
  <path d="M670 175 H750" fill="none" stroke="#3A556A" stroke-width="5" marker-end="url(#a)"/>
  <path d="M1010 175 C1040 185,1060 205,1075 230" fill="none" stroke="#3A556A" stroke-width="5" marker-end="url(#a)"/>
  <path d="M1130 370 C1045 430,930 455,835 465" fill="none" stroke="#3A556A" stroke-width="5" marker-end="url(#a)"/>
  <path d="M575 465 C445 450,320 405,260 375" fill="none" stroke="#3A556A" stroke-width="5" marker-end="url(#a)"/>
</svg>
